<?xml version="1.0" encoding="UTF-8"?>
<!DOCTYPE svg PUBLIC "-//W3C//DTD SVG 1.1//EN" "http://www.w3.org/Graphics/SVG/1.1/DTD/svg11.dtd">
<!-- Creator: CorelDRAW 2018 (64-Bit) -->
<svg xmlns="http://www.w3.org/2000/svg" xml:space="preserve" width="1.00008in" height="1in" version="1.1" style="shape-rendering:geometricPrecision; text-rendering:geometricPrecision; image-rendering:optimizeQuality; fill-rule:evenodd; clip-rule:evenodd"
viewBox="0 0 1000.09 1000.01"
 xmlns:xlink="http://www.w3.org/1999/xlink">
 <defs>
  <style type="text/css">
   <![CDATA[
    .fil0 {fill:black}
   ]]>
  </style>
 </defs>
 <g id="Layer_x0020_1">
  <metadata id="CorelCorpID_0Corel-Layer"/>
  <g id="_2514882955888">
   <path class="fil0" d="M351.21 549.88c19.52,-0.3 21.5,8.58 44.95,32.43l28.18 28.35c5.83,6.41 4.04,5.43 3.95,16.69l-77.08 -77.47zm137.95 -210.37c10.61,0.09 29.85,23.7 40.7,34.74l75.68 76.97c1.75,1.78 3.51,3.51 5.27,5.21 8.48,-3.7 17.17,-7 26.05,-9.89 -5.6,-5.97 -11.49,-12 -16.54,-15.44l12.87 -13.53c17.7,25.5 28.35,3.19 28.71,0.69 1.05,-7.58 -61.31,-67.11 -70.5,-76.45 -7.48,-7.61 -15.56,-19.69 -26.65,-22.37 -3.84,0.46 -24.04,12.03 -0.24,28.26l-11.81 12.72c-21.05,-14.21 -31.62,-45.13 -65.19,-45.42 -23.86,-0.21 -32.27,13.96 -51.64,33.01l-106.48 104.58c-34.06,34.14 8.03,69.29 11.2,74.12 -13.88,1.04 -30.92,4.19 -46.14,6.29 -33.51,4.63 -15.22,25.23 -10.66,25.27 51.13,0.43 17.94,-24.51 87.7,46.45 12.3,12.5 23.21,23.61 35.5,36.11 5.1,5.19 15.18,11.78 15.35,20.23 0.05,2.71 -1.58,10.35 -2.32,14.88 -1.33,8.26 -5.81,28.56 9.52,28.69 2.63,0.02 4.74,-0.57 6.47,-1.62 2.35,-32.36 9.96,-63.27 22,-91.85 -33.68,-33.24 -87.78,-89.5 -99.85,-101.73 -29.95,-30.38 -16.5,-35.16 12.8,-63.97l98.78 -97.21c5.68,-5.74 8.6,-8.83 19.43,-8.74zm80.26 38.84l11.44 -12.11 34.52 34.2 -11.44 12.1 -34.52 -34.19z"/>
   <path class="fil0" d="M464.42 421.78l21.9 -22.43 80.43 81c6.9,-4.55 13.99,-8.83 21.28,-12.8 -1.93,-1.91 -3.98,-3.95 -6.15,-6.16 -10.53,-10.72 -86.34,-91.67 -92.98,-91.73 -13.35,-0.11 -22.62,13.84 -31.77,22.82 -34.87,34.28 -35.7,21.65 35.96,94.54 11.62,11.82 21.01,21.67 28.76,29.78 6.22,-6.16 12.7,-12.04 19.45,-17.62l-76.88 -77.39z"/>
   <path class="fil0" d="M399.42 476.32c5.11,0.05 -0.06,6.74 -0.11,1.69 -0.03,-1.9 -4.17,-1.72 0.11,-1.69zm2.04 -18.82c-7.77,-0.07 -13.64,-0.02 -19.32,6.96 -7.59,9.34 -7.96,34.27 18.96,34.49 24.87,0.22 25.23,-41.24 0.35,-41.45z"/>
  </g>
  <path class="fil0" d="M469.82 715.46l0 18.12c0,46.11 15.91,85.98 34.57,120.45 1.94,3.59 3.74,5.99 5.74,9.35 24.69,41.34 64.58,73.47 107.65,94.69 23.75,11.7 65.35,24.14 100.68,24.14 49.65,0 73.19,-4.71 118.06,-23.87 7.13,-3.04 13.84,-6.91 20.42,-10.78 17.79,-10.46 21.94,-14.4 36.67,-25.74l16.35 -14.85c32.89,-32.89 55.54,-73.49 67.54,-118.68 4.48,-16.86 7.02,-34.67 7.7,-52.7l0 -20.13c-1.31,-35.09 -9.46,-70.12 -23.81,-100 -4.17,-8.69 -8.41,-21.8 -20.48,-21.8 -8.96,0 -17.11,7.42 -17.11,16.11 0,7.82 20.4,37.71 26.23,80.46 4.36,31.95 3.83,51.77 -2.83,82.86 -3.45,16.1 -7.8,28.12 -13.62,41.75 -8.04,18.8 -18.7,35.8 -31.24,51.3 -10.02,12.39 -15.69,17.69 -27.1,28.26l-15.86 12.32c-16.15,12.16 -34.94,21.34 -53.93,28.61 -7.39,2.83 -13.73,4.45 -21.44,6.74 -33.28,9.89 -78.35,8.84 -112.08,0.09 -21.47,-5.57 -39.34,-12.98 -57.74,-23.8 -17.14,-10.07 -31.94,-21.52 -45.97,-35.56 -12.78,-12.78 -26.39,-30.24 -35.29,-46.24 -3.39,-6.09 -6.55,-11.15 -9.33,-17.85 -5.34,-12.87 -10.88,-25.38 -14.1,-40.26 -19.02,-87.88 4.73,-160.64 67.76,-221.31 2.2,-2.12 2.79,-2.21 5,-4.07 50.12,-42.11 105.61,-57.54 172.42,-52.01 33.11,2.75 74.13,19.15 100.69,38.22 17.97,12.9 30.19,2.5 30.19,-11.07 0,-11.39 -15.32,-19.13 -26.6,-25.74 -33.55,-19.71 -79.62,-35.66 -122.38,-35.66 -59.75,0 -91.31,8.98 -138.57,34.57 -3.59,1.94 -5.99,3.74 -9.35,5.74 -27.72,16.56 -52.64,42.44 -71.67,68.24 -2.16,2.93 -4.12,5.89 -6.08,9.02 -22.91,36.63 -41.07,83.08 -41.07,131.06z"/>
  <path class="fil0" d="M611.82 581.9c0,46.3 66.87,14.13 107.83,30.52 7.66,3.06 22.67,12.79 24.82,20.82 -14.32,0 -102.08,-1.35 -111.92,0.76 -28.71,6.13 -23.6,43.41 0.8,46.18l122.53 0.13c-1.03,12.4 -11.34,28.87 -18.94,35.25 -48,40.26 -125.11,-11.08 -125.11,41.76 0,11.92 21.86,28.12 32.59,41.57 4.81,6.03 12.61,12.94 18.41,18.67l35.61 38.55c6.33,6.58 12.45,11.86 18.59,18.49 10.23,11.06 25.99,33.89 41.7,33.89 14.56,0 22.82,-10.5 22.82,-25.67 0,-10.65 -14.09,-21.99 -20.33,-28.16 -4.85,-4.8 -6.85,-8.3 -11.38,-12.87l-59.58 -63.09c32.74,0 59.81,-12.57 77.37,-28.18 14.52,-12.9 35.31,-43.82 35.31,-70.23 13.79,0 34.23,-1.8 34.23,-22.82 0,-24.99 -25.34,-24.24 -39.93,-24.24 -1.88,-8.05 -9.15,-18.71 -12.84,-25.67 16.2,0 52.77,5.3 52.77,-22.82 0,-15.33 -12.96,-24.24 -28.52,-24.24l-169.73 0c-8.33,0 -14.01,2.15 -18.65,5.6 -3.58,2.67 -8.46,9.85 -8.46,15.79z"/>
  <path class="fil0" d="M891.59 563.45c0,9.24 8.59,18.2 16.09,20.24 12.7,3.46 29.52,-13.35 13.89,-29.07 -1.35,-1.36 -3.67,-3.93 -5.19,-4.87 -10.35,-6.44 -24.78,1.96 -24.78,13.71z"/>
  <path class="fil0" d="M661.89 164.76c0,92.3 85.93,175.82 191.45,150.98 43.12,-10.15 28.69,-21.9 70.85,20.28 43.69,43.69 43.2,27.61 -36.13,106.94 -4.43,4.43 -12.61,12.69 -23.24,23.44 13.72,7.31 26.79,15.69 39.1,25.02 49.6,-49.98 83.49,-84.61 85.9,-88.33 29.02,-44.84 -10.48,-75.51 -32.39,-97.42 -25.67,-25.67 -34.39,-45.52 -72.98,-45.52 -23.5,0 -84.93,40.7 -142.41,-16.57 -61.86,-61.63 -19.45,-107.98 -19.45,-153.97 0,-26.75 -21.07,-39.85 -35.41,-54.19 -7.52,-7.51 -15.17,-16.48 -23.48,-22.76 -50.29,-38 -89.27,18.46 -123.93,53.11l-529.53 531.23c-3.57,5.52 -10.24,23.36 -10.24,30.22 0,33.98 33.5,57.83 59.97,84.55 47.83,48.3 43.24,-12.28 113.45,-12.28 12.12,0 33.77,5.26 43.05,8.98 58.36,23.34 88.95,103.05 46.96,161.96 -24.71,34.67 -5.72,39.04 52.34,97.14 7.79,7.79 13.59,15.01 22.26,21.09 49.96,35.07 87.08,-19.17 122.26,-54.33 5.97,-5.97 17.78,-17.73 33.87,-33.75 -9.25,-12.24 -17.56,-25.24 -24.82,-38.88l-61.07 61.07c-39.75,39.75 -32.46,41.24 -70.81,2.89 -40.08,-40.08 -30.54,-24.43 -15.52,-71.88 19.02,-60.08 -0.89,-113.91 -37.14,-152.95 -36.54,-39.35 -98.29,-56.98 -153.63,-40.71 -41.76,12.28 -31.39,27.72 -65.42,-6.16 -32.4,-32.26 -27.41,-23.18 46.24,-96.83 26.91,-26.9 192.3,-195.36 205.94,-204.49 12.6,8.43 32.61,37.57 49.13,37.57 10.08,0 23.12,-13.05 23.12,-23.12 0,-16.53 -29.14,-36.54 -37.57,-49.14 9.09,-13.58 176.46,-177.9 203.05,-204.49 76.83,-76.83 66.05,-79.92 99.72,-46.25 43.56,43.56 6.5,31.67 6.5,97.55z"/>
 </g>
</svg>
